<svg xmlns="http://www.w3.org/2000/svg" width="21" height="21">
    <path d="M2 8v5h1v2h1v1h1v1h1v1h2v1h5v-1h2v-1h1v-1h1v-1h1v-2h1v-5h-1v-2h-1v-1h-1v-1h-1v-1h-2v-1h-5v1h-2v1h-1v1h-1v1h-1v2" fill="#000"/>
    <path d="M3 8v5h1v2h1v1h1v1h2v1h5v-1h2v-1h1v-1h1v-2h1v-5h-1v-2h-1v-1h-1v-1h-2v-1h-5v1h-2v1h-1v1h-1v2" fill="#ff0"/>
    <path d="M6 6v1h1v1h-1v1h1v-1h1v1h1v-1h-1v-1h1v-1h-1v1h-1v-1M12 6v1h1v1h-1v1h1v-1h1v1h1v-1h-1v-1h1v-1h-1v1h-1v-1M6 15h1v-1h1v-1h5v1h1v1h1v-1h-1v-1h-1v-1h-5v1h-1v1h-1"
          fill="#000"/>
</svg>