<svg xmlns="http://www.w3.org/2000/svg" version="1.1" id="圖層_1" x="0px" y="0px" viewBox="0 0 100 100"
     enable-background="new 0 0 100 100" xml:space="preserve" filter="url(#badShadow)">
    <defs>
        <filter id="badShadow" x="-20%" y="-20%" width="140%" height="140%">
            <feDropShadow dx="0" dy="0" stdDeviation="4" flood-color="rgba(255, 0, 0, 0.5)"/>
        </filter>
    </defs>
    <g><polyline fill="none" stroke="#000000" stroke-width="3" stroke-linecap="round" stroke-linejoin="round" stroke-miterlimit="10" points=" 57.99,21.17 67.47,10.47 61.88,6  "/>
        <polyline
                fill="none" stroke="#000000" stroke-width="3" stroke-linecap="round" stroke-linejoin="round" stroke-miterlimit="10"
                points=" 41.76,21.17 32.28,10.47 37.87,6  "/>
        <path fill="#66503A" stroke="#000000" stroke-width="3" stroke-linecap="round" stroke-linejoin="round"
              stroke-miterlimit="10"
              d=" M61.3,37.04c-1.85,1.02-5.67,2.81-10.81,2.92c-5.7,0.12-9.93-1.89-11.79-2.92c-0.73-4.13-1.46-8.26-2.19-12.38 c-0.83-4.71,2.79-9.03,7.57-9.03h11.84c4.78,0,8.41,4.32,7.57,9.03L61.3,37.04z"/></g>
    <path fill="#66503A" stroke="#000000" stroke-width="3" stroke-linecap="round" stroke-linejoin="round" stroke-miterlimit="10"
          d=" M57.56,58.53c-1.21,1.17-3.72,3.23-7.1,3.35c-3.74,0.14-6.52-2.17-7.74-3.35c-0.48-4.74-0.96-9.48-1.44-14.22 c-0.55-5.41,1.83-10.37,4.97-10.37h7.77c3.14,0,5.52,4.96,4.97,10.37L57.56,58.53z"/>
    <path fill="#66503A" stroke="#000000" stroke-width="3" stroke-linecap="round" stroke-linejoin="round" stroke-miterlimit="10"
          d=" M65.48,71.59C65.3,82.79,50,94,50,94S34.52,82.79,34.52,71.59S41.45,53.45,50,53.45S65.65,60.39,65.48,71.59z"/>
    <polyline fill="none" stroke="#000000" stroke-width="3" stroke-linecap="round" stroke-linejoin="round" stroke-miterlimit="10"
              points=" 59.64,43.44 75.29,38.97 75.29,27.8 "/>
    <polyline fill="none" stroke="#000000" stroke-width="3" stroke-linecap="round" stroke-linejoin="round" stroke-miterlimit="10"
              points=" 59.08,47.92 77.53,47.91 84.23,37.86 "/>
    <polyline fill="none" stroke="#000000" stroke-width="3" stroke-linecap="round" stroke-linejoin="round" stroke-miterlimit="10"
              points=" 58.24,51.83 82,56.86 78.65,80.33 82,84.8 "/>
    <polyline fill="none" stroke="#000000" stroke-width="3" stroke-linecap="round" stroke-linejoin="round" stroke-miterlimit="10"
              points=" 40.36,43.44 24.71,38.97 24.71,27.8 "/>
    <polyline fill="none" stroke="#000000" stroke-width="3" stroke-linecap="round" stroke-linejoin="round" stroke-miterlimit="10"
              points=" 40.92,47.92 22.47,47.91 15.77,37.86 "/>
    <polyline fill="none" stroke="#000000" stroke-width="3" stroke-linecap="round" stroke-linejoin="round" stroke-miterlimit="10"
              points=" 41.76,51.83 18,56.86 21.35,80.33 18,84.8 "/>
</svg>