<svg xmlns="http://www.w3.org/2000/svg" version="1.1" filter="url(#goodShadow)" id="圖層_1" x="0" y="0" viewBox="0 0 100 100" xml:space="preserve"><path d="M80.954 32.286a21.347 21.347 0 0 0-6.287-3.619C64.229 24.79 51.463 35 51.463 35S40.667 25.333 29 28.667C17.334 32 13.447 44.335 13.447 54s4.255 18.415 11.135 24.749c4.124 3.797 9.195 6.716 14.854 8.453A40.958 40.958 0 0 0 51.463 89c10.498 0 20.002-3.918 26.881-10.251S89.478 63.665 89.478 54c0-7.622-1.976-16.268-8.524-21.714z" fill="#d96d6d"/>
    <defs>
        <filter id="goodShadow" x="-20%" y="-20%" width="140%" height="140%">
            <feDropShadow dx="0" dy="0" stdDeviation="4" flood-color="rgba(0, 255, 0, 0.5)"/>
        </filter>
    </defs>
    <path d="M57.371 16.326C61.345 10.9 67.246 9.305 73.85 8.03c1.826 1.932 2.314 4.131.601 6.721-5.797 1.207-11.11 1.931-15.034 6.365-2.106 2.379-3.818 5.097-5.109 7.997a33.65 33.65 0 0 0-1.605 4.419c-.45 1.571-.266 3.502-2.077 3.908-.428-3.254.711-7.385 1.605-10.478 1.098-3.801 2.799-7.44 5.14-10.636z"
          fill="#603813"/>
    <path d="M49.508 18.25c-5.452-6.449-14.505-9.632-22.793-8.015-.29 1.714.243 3.466.995 5.033 3.061 6.378 10.108 10.618 17.176 10.337 1.455-.058 2.952-.285 4.339.159s2.612 1.861 2.226 3.265c1.548-3.632.517-7.869-1.943-10.779z"
          fill="#009245"/>
    <path d="M25.288 40.808c-3.976 3.161-5.271 11.547-3.838 14.855" fill="#fff" stroke="#fff" stroke-width="5.703" stroke-linecap="round"
          stroke-miterlimit="10"/>
    <circle transform="rotate(-34.925 24.783 65.045)" cx="24.784" cy="65.045" fill="#fff" r="3.284"/>
    <path d="M80.954 32.286A50.517 50.517 0 0 1 82 42.5c0 24.761-17.759 44.833-39.667 44.833-.976 0-1.94-.054-2.898-.132A40.937 40.937 0 0 0 51.463 89c10.498 0 20.002-3.918 26.881-10.251S89.478 63.665 89.478 54c0-7.622-1.976-16.268-8.524-21.714z"
          opacity=".2"/>
</svg>