<svg xmlns="http://www.w3.org/2000/svg" version="1.1" id="圖層_1" x="0px" y="0px" viewBox="0 0 100 100"
     enable-background="new 0 0 100 100" xml:space="preserve" filter="url(#badShadow)">
    <defs>
    <filter id="badShadow" x="-20%" y="-20%" width="140%" height="140%">
        <feDropShadow dx="0" dy="0" stdDeviation="4" flood-color="rgba(255, 0, 0, 0.5)"/>
    </filter>
</defs>
    <ellipse fill="#323334" stroke="#000000" stroke-width="3" stroke-linecap="round" stroke-linejoin="round" stroke-miterlimit="10" cx="50.08" cy="66.47"
             rx="14.61" ry="21.23"/>
    <g><ellipse fill="#323334" stroke="#000000" stroke-width="3" stroke-linecap="round" stroke-linejoin="round" stroke-miterlimit="10" cx="50.08" cy="27.47" rx="1.87" ry="9.97"/>
        <line fill="#96343D" stroke="#000000" stroke-width="3" stroke-linecap="round" stroke-linejoin="round" stroke-miterlimit="10" x1="51.96" y1="21.56"
              x2="56.45" y2="12.3"/>
        <line fill="#96343D" stroke="#000000" stroke-width="3" stroke-linecap="round" stroke-linejoin="round" stroke-miterlimit="10" x1="48.21" y1="21.56"
              x2="43.71" y2="12.3"/></g>
    <ellipse transform="matrix(0.0537 -0.9986 0.9986 0.0537 13.7405 67.7011)" fill="#96343D" stroke="#000000" stroke-width="3" stroke-linecap="round"
             stroke-linejoin="round" stroke-miterlimit="10" cx="42.59" cy="26.6" rx="8.23" ry="7.12"/>
    <ellipse fill="#96343D" stroke="#000000" stroke-width="3" stroke-linecap="round" stroke-linejoin="round" stroke-miterlimit="10" cx="57.58" cy="26.6"
             rx="7.12" ry="8.23"/>
    <polyline fill="none" stroke="#000000" stroke-width="3" stroke-linecap="round" stroke-linejoin="round" stroke-miterlimit="10"
              points=" 57.78,37.43 74.44,27.9 72.19,18.37 77.44,14.9 "/>
    <polyline fill="none" stroke="#000000" stroke-width="3" stroke-linecap="round" stroke-linejoin="round" stroke-miterlimit="10"
              points=" 58.7,42.63 75.94,39.17 79.69,46.97 84.18,46.97 "/>
    <polyline fill="none" stroke="#000000" stroke-width="3" stroke-linecap="round" stroke-linejoin="round" stroke-miterlimit="10"
              points=" 61.07,52.46 80.44,55.63 84.18,73.83 87.93,77.3 "/>
    <polyline fill="none" stroke="#000000" stroke-width="3" stroke-linecap="round" stroke-linejoin="round" stroke-miterlimit="10"
              points=" 42.22,37.43 25.56,27.9 27.81,18.37 22.56,14.9 "/>
    <polyline fill="none" stroke="#000000" stroke-width="3" stroke-linecap="round" stroke-linejoin="round" stroke-miterlimit="10"
              points=" 41.3,42.63 24.06,39.17 20.31,46.97 15.82,46.97 "/>
    <polyline fill="none" stroke="#000000" stroke-width="3" stroke-linecap="round" stroke-linejoin="round" stroke-miterlimit="10"
              points=" 38.93,52.46 19.56,55.63 15.82,73.83 12.07,77.3 "/>
    <path fill="#F1F1F3" stroke="#000000" stroke-width="3" stroke-linecap="round" stroke-linejoin="round" stroke-miterlimit="10"
          d=" M73.32,57.53c3.02,7.44,8.54,24.6,3.89,28.46c-4.24,3.52-16.65-4.26-22.01-15.96c-6.18-13.47-2.97-32.08,2.3-33.65 C62.84,34.79,70.54,50.68,73.32,57.53z"/>
    <path fill="#F1F1F3" stroke="#000000" stroke-width="3" stroke-linecap="round" stroke-linejoin="round" stroke-miterlimit="10"
          d=" M26.77,57.53c-3.02,7.44-8.54,24.6-3.89,28.46c4.24,3.52,16.65-4.26,22.01-15.96c6.18-13.47,2.97-32.08-2.3-33.65 C37.25,34.79,29.55,50.68,26.77,57.53z"/>
    <ellipse fill="#323334" stroke="#000000" stroke-width="3" stroke-linecap="round" stroke-linejoin="round" stroke-miterlimit="10" cx="50.08" cy="43.07"
             rx="8.62" ry="12.57"/>
</svg>