<svg xmlns="http://www.w3.org/2000/svg" version="1.1" filter="url(#goodShadow)" id="圖層_1" x="0" y="0" viewBox="0 0 100 100" xml:space="preserve"><path d="M82.318 50.6c-.105-.178-.201-.357-.315-.533-2.241-3.476-5.616-5.611-8.862-5.984-.372-5.188-4.688-9.284-9.97-9.284a9.953 9.953 0 0 0-5.715 1.799c-.524-5.034-4.779-8.959-9.951-8.959-.477 0-.942.045-1.401.109-1.264-4.383-5.297-7.593-10.087-7.593-5.802 0-10.505 4.703-10.505 10.505 0 2.936 1.208 5.588 3.15 7.495-6.765 1.686-11.336 6.961-10.31 12.105.577 2.896 2.816 5.146 5.887 6.381-4.769 3.272-7.084 8.631-5.264 13.171 1.145 2.858 3.704 4.812 6.863 5.646-.097.258-.199.513-.284.78-1.451 4.555-.769 9.165 1.441 12.366 1.218 1.765 2.894 3.107 4.947 3.761 5.779 1.841 12.289-2.393 14.541-9.459a16.25 16.25 0 0 0 .644-2.927c.765.2 1.564.316 2.392.316 3.839 0 7.138-2.277 8.644-5.55.183.141.365.283.554.411 1.94 1.31 4.182 1.956 6.492 1.688 5.019-.581 8.75-5.263 9.365-11.115 2.161.492 4.324.225 6.119-.933 4.078-2.629 4.748-8.886 1.625-14.196z" fill="#b47be0"/>
    <defs>
        <filter id="goodShadow" x="-20%" y="-20%" width="140%" height="140%">
            <feDropShadow dx="0" dy="0" stdDeviation="4" flood-color="rgba(0, 255, 0, 0.5)"/>
        </filter>
    </defs>
    <path d="M80.67 28.198a12.711 12.711 0 0 0 2.65-1.874c.937-.868 1.774-1.922 2.038-3.172-5.23-3.341-12.277-3.607-17.744-.669-2.389 1.284-4.181 3.783-4.221 6.573-.103.187-.214.368-.299.567.079-.132.178-.241.287-.339 0 .014-.003.028-.002.042.002-.017.01-.032.012-.05.653-.574 1.766-.566 2.568-.13.94.51 1.581 1.421 2.289 2.223 3.442 3.897 9.273 5.484 14.215 3.87 1.214-.397 2.415-1.004 3.178-2.028-1.283-1.999-2.998-3.696-4.971-5.013z"
          fill="#009245"/>
    <path d="M65.521 23.555c.862-4.867-1.289-8.811-3.967-12.965-1.954.012-3.369.87-3.874 3.095 2.304 3.692 4.619 6.881 4.258 11.217a22.964 22.964 0 0 1-1.651 6.776 24.823 24.823 0 0 1-1.531 3.098c-.606 1.037-1.725 1.921-1.021 3.088 1.945-1.426 3.56-4.13 4.749-6.176 1.461-2.514 2.529-5.266 3.037-8.133z"
          fill="#603813"/>
    <path d="M82.318 50.6c-.105-.178-.201-.357-.315-.533-2.241-3.476-5.616-5.611-8.862-5.984-.372-5.188-4.688-9.284-9.97-9.284a9.953 9.953 0 0 0-5.715 1.799c-.524-5.034-4.779-8.959-9.951-8.959-.477 0-.942.045-1.401.109-1.264-4.383-5.297-7.593-10.087-7.593-5.802 0-10.505 4.703-10.505 10.505 0 2.936 1.208 5.588 3.15 7.495-6.765 1.686-11.336 6.961-10.31 12.105.577 2.896 2.816 5.146 5.887 6.381-4.769 3.272-7.084 8.631-5.264 13.171 1.145 2.858 3.704 4.812 6.863 5.646-.097.258-.199.513-.284.78-1.451 4.555-.769 9.165 1.441 12.366.273.169.552.33.847.467 5.497 2.564 12.746-1.345 16.192-8.731.313-.671.579-1.347.808-2.024a9.35 9.35 0 0 0 2.164.256c4.053 0 7.506-2.538 8.878-6.108.833 1.063 1.782 1.982 2.831 2.691 5.033.266 10.36-3.093 13.085-8.765a17.151 17.151 0 0 0 1.185-3.285 11.545 11.545 0 0 0 4.044-1.623c3.779-2.436 5.673-6.692 5.289-10.882z"
          fill="#b47be0"/>
    <path d="M82.318 50.6c.385 4.19-1.509 8.445-5.29 10.883a11.48 11.48 0 0 1-1.114.626c-.099.049-.199.09-.298.135-.28.129-.562.248-.848.353-.055.02-.109.049-.164.068l-.001-.012c-.533.187-1.073.345-1.619.452a16.929 16.929 0 0 1-.589 1.868c-.178.475-.371.948-.596 1.417-2.725 5.672-8.052 9.03-13.085 8.765 1.94 1.31 4.182 1.956 6.492 1.688 5.019-.581 8.75-5.263 9.365-11.115 2.161.492 4.324.225 6.119-.933 4.081-2.628 4.751-8.885 1.628-14.195z"
          fill="#662d91"/>
    <path d="M55.883 72.466c-.08.208-.168.41-.262.611l-.043.091a9.486 9.486 0 0 1-.299.575l-.028.046a9.456 9.456 0 0 1-1.077 1.506c-.075.086-.15.172-.228.255a9.914 9.914 0 0 1-.633.615c-.076.068-.151.137-.23.203a9.47 9.47 0 0 1-1.384.958l-.078.043c-.24.134-.486.257-.738.37l-.041.019a9.447 9.447 0 0 1-3.837.814 9.35 9.35 0 0 1-2.164-.256c-.068.202-.147.403-.222.604l.002.001-.024.057c-.171.455-.354.91-.565 1.362-3.446 7.386-10.695 11.295-16.192 8.731a8.459 8.459 0 0 1-.847-.467c1.218 1.765 2.894 3.107 4.947 3.761 5.779 1.841 12.289-2.393 14.541-9.459a16.25 16.25 0 0 0 .644-2.927c.765.2 1.564.316 2.392.316 3.839 0 7.138-2.277 8.644-5.55a12.93 12.93 0 0 1-2.278-2.279z"
          fill="#662d91"/>
    <path d="M82.318 50.6c.385 4.19-1.509 8.445-5.29 10.883a11.48 11.48 0 0 1-1.114.626c-.099.049-.199.09-.298.135-.28.129-.562.248-.848.353-.055.02-.109.049-.164.068l-.001-.012c-.533.187-1.073.345-1.619.452a16.929 16.929 0 0 1-.589 1.868c-.178.475-.371.948-.596 1.417-2.725 5.672-8.052 9.03-13.085 8.765 1.94 1.31 4.182 1.956 6.492 1.688 5.019-.581 8.75-5.263 9.365-11.115 2.161.492 4.324.225 6.119-.933 4.081-2.628 4.751-8.885 1.628-14.195z"
          opacity=".2"/>
    <path d="M55.883 72.466c-.08.208-.168.41-.262.611l-.043.091a9.486 9.486 0 0 1-.299.575l-.028.046a9.456 9.456 0 0 1-1.077 1.506c-.075.086-.15.172-.228.255a9.914 9.914 0 0 1-.633.615c-.076.068-.151.137-.23.203a9.47 9.47 0 0 1-1.384.958l-.078.043c-.24.134-.486.257-.738.37l-.041.019a9.447 9.447 0 0 1-3.837.814 9.35 9.35 0 0 1-2.164-.256c-.068.202-.147.403-.222.604l.002.001-.024.057c-.171.455-.354.91-.565 1.362-3.446 7.386-10.695 11.295-16.192 8.731a8.459 8.459 0 0 1-.847-.467c1.218 1.765 2.894 3.107 4.947 3.761 5.779 1.841 12.289-2.393 14.541-9.459a16.25 16.25 0 0 0 .644-2.927c.765.2 1.564.316 2.392.316 3.839 0 7.138-2.277 8.644-5.55a12.93 12.93 0 0 1-2.278-2.279z"
          opacity=".2"/>
    <circle transform="rotate(-30.356 35.328 25.118)" cx="35.33" cy="25.12" fill="#fff" r="2.451"/>
</svg>