<svg xmlns="http://www.w3.org/2000/svg" version="1.1" id="圖層_1" x="0px" y="0px" viewBox="0 0 100 100"
     enable-background="new 0 0 100 100" xml:space="preserve" filter="url(#badShadow)">
    <defs>
    <filter id="badShadow" x="-20%" y="-20%" width="140%" height="140%">
        <feDropShadow dx="0" dy="0" stdDeviation="4" flood-color="rgba(255, 0, 0, 0.5)"/>
    </filter>
</defs>
    <g><path fill="none" stroke="#000000" stroke-width="3" stroke-linecap="round" stroke-linejoin="round" stroke-miterlimit="10" d=" M61.15,31.28c10.8-3.06,11.88-4.08,11.88-4.08l-1.08-8.16L79.51,17"/>
        <path
                fill="none" stroke="#000000" stroke-width="3" stroke-linecap="round" stroke-linejoin="round" stroke-miterlimit="10"
                d=" M65.09,48.44C80.36,48.26,82.2,48.9,82.2,48.9l2.15,7.81L95,56.49"/>
        <path fill="none" stroke="#000000" stroke-width="3" stroke-linecap="round"
              stroke-linejoin="round" stroke-miterlimit="10"
              d=" M65.09,65.76c16.36,6.49,17.76,8.07,17.76,8.07l-4.5,10.19l11.48,4.42"/>
        <path
                fill="none" stroke="#000000" stroke-width="3" stroke-linecap="round" stroke-linejoin="round" stroke-miterlimit="10"
                d=" M20.49,17l7.56,2.04l-1.08,8.16c0,0,1.08,1.02,11.88,4.08"/>
        <path fill="none" stroke="#000000" stroke-width="3" stroke-linecap="round"
              stroke-linejoin="round" stroke-miterlimit="10"
              d=" M5,56.49l10.65,0.22l2.15-7.81c0,0,1.84-0.64,17.11-0.46"/>
        <path fill="none"
              stroke="#000000"
              stroke-width="3"
              stroke-linecap="round"
              stroke-linejoin="round"
              stroke-miterlimit="10"
              d=" M10.17,88.44l11.48-4.42l-4.5-10.19c0,0,1.4-1.57,17.76-8.07"/>
        <g><circle stroke="#000000" stroke-width="3" stroke-miterlimit="10" cx="50.45" cy="27.86" r="12.31"/>
            <ellipse stroke="#000000" stroke-width="3" stroke-miterlimit="10" cx="50.45" cy="37.71" rx="15.27" ry="11.33"/>
            <g><g><line fill="none" stroke="#000000" stroke-width="3" stroke-miterlimit="10" x1="38.46" y1="13.22" x2="42.54" y2="20.96"/></g>
                <ellipse transform="matrix(0.939 -0.344 0.344 0.939 -1.7554 13.7685)" stroke="#000000" stroke-width="3.0001" stroke-miterlimit="10.0003"
                         cx="37.93"
                         cy="11.83" rx="1.47" ry="1.78"/></g>
            <g><g><line fill="none" stroke="#000000" stroke-width="3" stroke-miterlimit="10" x1="62.17" y1="13.22" x2="58.08" y2="20.96"/></g>
                <ellipse transform="matrix(0.344 -0.939 0.939 0.344 30.0185 66.636)" stroke="#000000" stroke-width="3.0001" stroke-miterlimit="10.0003"
                         cx="62.7"
                         cy="11.83" rx="1.78" ry="1.47"/></g></g>
        <path stroke="#000000" stroke-width="3" stroke-miterlimit="10"
              d="M50.55,31.21c-0.03,0-0.06,0-0.09,0 C39.93,31.2,31.3,44.23,31.17,60.37c-0.13,16.14,8.28,29.31,18.82,29.47c0.03,0,0.06,0,0.09,0c10.57,0.09,19.25-12.97,19.39-29.16 C69.59,44.49,61.13,31.3,50.55,31.21z"/></g>
    <g><path fill="#C33636" stroke="#000000" stroke-width="3" stroke-miterlimit="10" d="M50.18,31.29 C34.53,31.36,21.86,44.46,21.86,60.6c0,16.14,12.67,29.24,28.32,29.31V89.4V31.29z"/>
        <circle cx="35.17" cy="50.01" r="3.93"/>
        <circle cx="32.21" cy="70.7" r="3.93"/>
        <circle cx="41.45" cy="61.34" r="5.41"/>
        <path d="M44.91,42.62c0,2.99,2.42,5.41,5.41,5.41V37.22C47.33,37.22,44.91,39.64,44.91,42.62z"/></g>
    <g><path fill="#C33636" stroke="#000000" stroke-width="3" stroke-miterlimit="10" d="M78.76,60.6c0-16.19-12.74-29.32-28.45-29.32 c-0.04,0-0.09,0-0.13,0V89.4v0.51c0.04,0,0.09,0,0.13,0C66.02,89.92,78.76,76.79,78.76,60.6z"/>
        <circle cx="69.64" cy="70.7" r="3.93"/>
        <circle cx="65.7" cy="50.01" r="3.93"/>
        <circle cx="59.18" cy="61.34" r="5.41"/>
        <path d="M55.72,42.62c0-2.99-2.42-5.41-5.41-5.41v10.81C53.3,48.03,55.72,45.61,55.72,42.62z"/></g>
</svg>