<svg xmlns="http://www.w3.org/2000/svg" version="1.1" id="圖層_1" x="0px" y="0px" viewBox="0 0 100 100"
     enable-background="new 0 0 100 100" xml:space="preserve" filter="url(#badShadow)">
    <defs>
    <filter id="badShadow" x="-20%" y="-20%" width="140%" height="140%">
        <feDropShadow dx="0" dy="0" stdDeviation="4" flood-color="rgba(255, 0, 0, 0.5)"/>
    </filter>
</defs>
    <g><ellipse fill="#FFF6E8" stroke="#000000" stroke-width="3" stroke-linecap="round" stroke-linejoin="round" stroke-miterlimit="10" cx="50" cy="25.81" rx="8.34" ry="8.5"/>
        <path
                fill="none" stroke="#000000" stroke-width="3" stroke-linecap="round" stroke-linejoin="round" stroke-miterlimit="10"
                d=" M53.24,17.31c0.01-0.58,0.17-5.05,3.71-8c3.21-2.68,6.81-2.11,7.41-2"/>
        <path fill="none" stroke="#000000" stroke-width="3" stroke-linecap="round"
              stroke-linejoin="round" stroke-miterlimit="10"
              d=" M46.76,17.31c-0.01-0.58-0.17-5.05-3.71-8c-3.21-2.68-6.81-2.11-7.41-2"/></g>
    <path fill="none" stroke="#000000" stroke-width="3" stroke-linecap="round" stroke-linejoin="round" stroke-miterlimit="10"
          d=" M58.91,30.84c6.36-1.7,10.17-2.73,10.17-2.73l1.44-8.4"/>
    <polyline fill="none" stroke="#000000" stroke-width="3" stroke-linecap="round" stroke-linejoin="round" stroke-miterlimit="10"
              points=" 59.82,45.41 71.73,43.89 72.73,38.98 "/>
    <polyline fill="none" stroke="#000000" stroke-width="3" stroke-linecap="round" stroke-linejoin="round" stroke-miterlimit="10"
              points=" 62.48,56.41 69.21,56.75 74.9,69.68 "/>
    <path fill="none" stroke="#000000" stroke-width="3" stroke-linecap="round" stroke-linejoin="round" stroke-miterlimit="10"
          d=" M41.09,30.84c-6.36-1.7-10.17-2.73-10.17-2.73l-1.44-8.4"/>
    <polyline fill="none" stroke="#000000" stroke-width="3" stroke-linecap="round" stroke-linejoin="round" stroke-miterlimit="10"
              points=" 40.18,45.41 28.27,43.89 27.27,38.98 "/>
    <polyline fill="none" stroke="#000000" stroke-width="3" stroke-linecap="round" stroke-linejoin="round" stroke-miterlimit="10"
              points=" 37.52,56.41 30.79,56.75 25.1,69.68 "/>
    <ellipse fill="#FFF6E8" stroke="#000000" stroke-width="3" stroke-linecap="round" stroke-linejoin="round" stroke-miterlimit="10" cx="50" cy="34.81" rx="8.34"
             ry="8.5"/>
    <ellipse fill="#F3E5C7" stroke="#000000" stroke-width="3" stroke-linecap="round" stroke-linejoin="round" stroke-miterlimit="10" cx="50" cy="63.81"
             rx="12.04" ry="28.5"/>
    <path fill="#988572" stroke="#000000" stroke-width="3" stroke-linecap="round" stroke-linejoin="round" stroke-miterlimit="10"
          d=" M81.5,91.97c-3.69,0.86-10.53,1.79-18.53-1.19c-5.92-2.2-10.27-5.73-12.97-8.33c0-19.04,0-38.09,0-57.13 c1.57-0.07,3.88,0.07,6.49,1.19c0.94,0.4,3.97,1.81,8.34,7.14c0,0,4.39,5.35,7.41,11.9C79.49,61.29,81.38,90.03,81.5,91.97z"/>
    <path fill="#988572" stroke="#000000" stroke-width="3" stroke-linecap="round" stroke-linejoin="round" stroke-miterlimit="10"
          d=" M18.5,91.97c3.69,0.86,10.53,1.79,18.53-1.19c5.92-2.2,10.27-5.73,12.97-8.33c0-19.04,0-38.09,0-57.13 c-1.57-0.07-3.88,0.07-6.49,1.19c-0.94,0.4-3.97,1.81-8.34,7.14c0,0-4.39,5.35-7.41,11.9C20.51,61.29,18.62,90.03,18.5,91.97z"/>
</svg>