<svg xmlns="http://www.w3.org/2000/svg" version="1.1" filter="url(#goodShadow)" id="圖層_1" x="0" y="0" viewBox="0 0 100 100" xml:space="preserve"><path d="M75.717 62.519a24.436 24.436 0 0 0-3.985-5.948c-3.05-3.355-4.806-7.671-4.722-12.204.004-.209.006-.419.006-.63 0-13.165-7.579-20.965-17.016-20.965s-17.16 7.8-17.16 20.965c0 .279.003.557.01.833.111 4.492-1.673 8.765-4.677 12.107-3.818 4.247-6.102 9.631-6.102 15.492 0 4.578 1.398 8.638 3.826 12.023C30.746 90.95 39.722 95 50 95c15.425 0 27.929-9.112 27.929-22.832.001-3.426-.8-6.68-2.212-9.649z" fill="#8cc63f"/>
    <defs>
        <filter id="goodShadow" x="-20%" y="-20%" width="140%" height="140%">
            <feDropShadow dx="0" dy="0" stdDeviation="4" flood-color="rgba(0, 255, 0, 0.5)"/>
        </filter>
    </defs>
    <path d="M75.717 62.519C73.062 79.148 59.98 89.818 44.229 89.818c-6.822 0-13.14-2.008-18.332-5.627C30.746 90.95 39.722 95 50 95c15.425 0 27.929-9.112 27.929-22.832.001-3.426-.8-6.68-2.212-9.649z"
          opacity=".2"/>
    <path d="M46.645 11.097c-2.92-3.988-7.257-5.16-12.11-6.097-1.342 1.42-1.7 3.036-.441 4.939 4.26.887 8.165 1.419 11.049 4.678a22.981 22.981 0 0 1 3.755 5.877 24.8 24.8 0 0 1 1.18 3.248c.33 1.154.196 2.574 1.526 2.872.315-2.391-.523-5.427-1.179-7.7-.809-2.793-2.059-5.468-3.78-7.817z"
          fill="#603813"/>
    <path d="M52.424 12.511c4.007-4.739 10.66-7.079 16.751-5.891.213 1.259-.179 2.547-.731 3.699-2.25 4.687-7.428 7.804-12.623 7.596-1.069-.043-2.17-.209-3.189.117s-1.92 1.368-1.636 2.399c-1.137-2.667-.38-5.781 1.428-7.92z"
          fill="#009245"/>
    <path d="M44.628 30.484c-3.388 1.42-5.935 7.003-5.587 9.587" stroke="#fff" stroke-width="4.124" stroke-linecap="round" stroke-miterlimit="10" fill="#fff"/>
    <circle transform="rotate(-30.356 38.79 47.357)" cx="38.793" cy="47.36" fill="#fff" r="2.451"/>
</svg>