<svg xmlns="http://www.w3.org/2000/svg" version="1.1" id="圖層_1" x="0px" y="0px" viewBox="0 0 100 100"
     enable-background="new 0 0 100 100" xml:space="preserve" filter="url(#badShadow)">
    <defs>
    <filter id="badShadow" x="-20%" y="-20%" width="140%" height="140%">
        <feDropShadow dx="0" dy="0" stdDeviation="4" flood-color="rgba(255, 0, 0, 0.5)"/>
    </filter>
</defs>
    <path fill="none" stroke="#000000" stroke-width="3" stroke-linecap="round" stroke-linejoin="round" stroke-miterlimit="10"
          d=" M70.79,58.45c0.89,0.89,5.34,2.67,7.12,7.12c1.78,4.45-0.89,10.67,1.78,14.23"/>
    <path fill="none" stroke="#000000" stroke-width="3" stroke-linecap="round" stroke-linejoin="round" stroke-miterlimit="10"
          d=" M66.54,46.74c2.47,1.04,14.03-1.63,15.81,3.71c1.78,5.34,1.78,10.67,5.34,13.34"/>
    <path fill="none" stroke="#000000" stroke-width="3" stroke-linecap="round" stroke-linejoin="round" stroke-miterlimit="10"
          d=" M27.21,58.45c-0.89,0.89-5.34,2.67-7.12,7.12c-1.78,4.45,0.89,10.67-1.78,14.23"/>
    <g><path fill="none" stroke="#000000" stroke-width="3" stroke-linecap="round" stroke-linejoin="round" stroke-miterlimit="10" d=" M46.99,22.87c-0.22-0.14-2.5-1.61-2.67-4.45c-0.16-2.57,1.54-4.22,1.78-4.45"/>
        <path fill="none" stroke="#000000" stroke-width="3" stroke-linecap="round" stroke-linejoin="round" stroke-miterlimit="10"
              d=" M54.99,22.87c0.22-0.14,2.5-1.61,2.67-4.45c0.16-2.57-1.54-4.22-1.78-4.45"/>
        <path fill="#4D4D4D" stroke="#000000" stroke-width="3" stroke-linecap="round" stroke-linejoin="round" stroke-miterlimit="10"
              d=" M53.62,41.55h-5.26c-3.95,0-7.15-2.81-7.15-6.27v-7.24c0-2.95,2.34-5.54,5.64-6.13c1.24-0.22,2.63-0.37,4.14-0.37 c0.94,0,2.39,0.06,4.13,0.36c3.31,0.59,5.65,3.18,5.65,6.13v7.24C60.78,38.74,57.58,41.55,53.62,41.55z"/></g>
    <path fill="#B3B3B3" stroke="#000000" stroke-width="3" stroke-linecap="round" stroke-linejoin="round" stroke-miterlimit="10"
          d=" M58.25,40.66h-14.5c-2.93,0-5.73,1.24-7.68,3.43c-3.95,4.44-6.41,10.63-6.41,17.47c0,13.51,9.56,24.46,21.35,24.46 s21.35-10.95,21.35-24.46c0-6.84-2.45-13.03-6.41-17.47C63.98,41.9,61.18,40.66,58.25,40.66z"/>
    <path fill="none" stroke="#000000" stroke-width="3" stroke-linecap="round" stroke-linejoin="round" stroke-miterlimit="10"
          d=" M60.34,37.19c0,0,12.76,3.78,15.7-0.37s3.93-6.23,7.86-13.51"/>
    <path fill="none" stroke="#000000" stroke-width="3" stroke-linecap="round" stroke-linejoin="round" stroke-miterlimit="10"
          d=" M61.13,31.06c0,0,9.29-0.17,10.37-3.56s1.3-4.98,2.38-10.64"/>
    <path fill="none" stroke="#000000" stroke-width="3" stroke-linecap="round" stroke-linejoin="round" stroke-miterlimit="10"
          d=" M41.66,37.19c0,0-12.76,3.78-15.7-0.37s-3.93-6.23-7.86-13.51"/>
    <path fill="none" stroke="#000000" stroke-width="3" stroke-linecap="round" stroke-linejoin="round" stroke-miterlimit="10"
          d=" M40.86,31.06c0,0-9.29-0.17-10.37-3.56c-1.08-3.39-1.3-4.98-2.38-10.64"/>
    <path fill="none" stroke="#000000" stroke-width="3" stroke-linecap="round" stroke-linejoin="round" stroke-miterlimit="10"
          d=" M33.46,47.63c-2.47,1.04-14.03-1.63-15.81,3.71s-1.78,10.67-5.34,13.34"/>
</svg>