<svg xmlns="http://www.w3.org/2000/svg" version="1.1" filter="url(#goodShadow)" id="圖層_1" x="0" y="0" viewBox="0 0 100 100" xml:space="preserve"><path d="M77.645 41.01c-1.206-.821-1.441-2.489-1.411-3.947.073-3.558 1.106-7.161 3.312-9.953 2.206-2.793 5.658-4.682 9.215-4.597 1.93.046 3.927.722 5.168 2.2 1.241 1.478 1.497 3.841.266 5.328-1.445 1.744-4.345 1.625-6.142.246-1.797-1.379-2.683-3.639-3.168-5.852A24.039 24.039 0 0 1 85.32 12.5" fill="none" stroke="#8cc63f" stroke-width="3.05" stroke-linecap="round" stroke-miterlimit="10"/>
    <defs>
        <filter id="goodShadow" x="-20%" y="-20%" width="140%" height="140%">
            <feDropShadow dx="0" dy="0" stdDeviation="4" flood-color="rgba(0, 255, 0, 0.5)"/>
        </filter>
    </defs>
    <path d="M80.465 28.074l-.003-.005a35.425 35.425 0 0 0-1.143-1.539c-.047-.061-.09-.125-.138-.186-.131-.166-.267-.327-.4-.491a36.493 36.493 0 0 0-1.473-1.695 35.806 35.806 0 0 0-1.103-1.136c-.138-.136-.273-.276-.413-.41-.522-.5-1.056-.988-1.608-1.456l-.001-.001c-2.637-.412-5.732.462-8.67.103-3.091-.378-6.297-3.119-9.702-2.937-3.145.168-6.556.833-9.864 1.502-3.111.629-6.141 2.343-9.31 3.434-3.169 1.091-6.659 1.514-9.498 2.934-3.018 1.509-6.098 3.136-8.68 4.939-2.794 1.952-5.299 4.429-7.501 6.629-2.446 2.442-2.815 6.362-4.422 8.978a25.996 25.996 0 0 1-1.378 1.987 35.62 35.62 0 0 0-.137 2.813 64.8 64.8 0 0 1 1.242-1.067c2.228-1.858 5.89-2.127 8.789-3.955 2.534-1.598 4.117-5.198 7.088-6.713 2.718-1.386 6.551-.633 9.578-1.905 2.847-1.196 5.46-3.08 8.534-4.138 3.073-1.058 6.12-1.814 9.1-2.623 3.169-.861 6.191-1.681 9.187-2.262 3.275-.635 6.25-2.234 9.232-2.535 3.409-.343 6.594 1.556 9.494 1.649.943.03 1.804.109 2.632.206.231.027.472.048.697.079-.044-.063-.084-.133-.129-.199z"
          fill="#8cc63f"/>
    <path d="M83.052 32.491c-.087-.177-.177-.352-.267-.527a35.968 35.968 0 0 0-.739-1.353l-.082-.149c-.074-.128-.146-.257-.221-.383a34.476 34.476 0 0 0-.916-1.442c-.079-.119-.151-.243-.232-.36-.224-.031-.466-.052-.697-.079a30.281 30.281 0 0 0-2.632-.206c-2.899-.094-6.084-1.993-9.494-1.649-2.982.3-5.957 1.9-9.232 2.535-2.996.581-6.018 1.4-9.187 2.262-2.979.81-6.026 1.565-9.1 2.623-3.074 1.058-5.687 2.942-8.534 4.138-3.027 1.271-6.86.519-9.578 1.905-2.971 1.515-4.554 5.115-7.088 6.713-2.899 1.828-6.561 2.096-8.789 3.955-.426.355-.838.711-1.242 1.067-.001.096-.004.192-.004.288-.002.338 0 .676.008 1.015.005.203.014.406.022.609.014.344.027.687.051 1.031.013.188.034.376.05.563.05.578.114 1.156.193 1.734.04.29.077.579.125.869.042.259.091.517.139.776.046.248.096.497.148.745.943-.149 1.871-.386 2.73-.81 2.622-1.294 4.265-5.386 7.416-6.767 2.767-1.213 6.255-1.262 9.362-2.508 2.855-1.144 5.605-2.961 8.697-4.107 2.918-1.082 6.942.699 10.029-.364 3.087-1.063 5.523-3.811 8.489-4.754 3.142-.999 5.73-3.555 8.683-4.41 3.216-.931 6.53-1.101 9.457-1.848 3.334-.851 6.941.546 9.806-.048.254-.053.494-.139.74-.211a13.454 13.454 0 0 0 1.946-.727c-.02-.044-.037-.086-.057-.126z"
          fill="#649623"/>
    <path d="M86.129 41.882c-.03-.168-.057-.336-.089-.504a36.387 36.387 0 0 0-.125-.616l-.005-.021c-.098-.46-.205-.919-.322-1.378l-.047-.185-.051-.195c-.036-.135-.071-.27-.109-.405a35.374 35.374 0 0 0-.606-1.979 34.995 34.995 0 0 0-.797-2.079l-.006-.014a37.269 37.269 0 0 0-.638-1.407l-.044-.094c-.062-.13-.119-.263-.182-.392-.622.291-1.275.53-1.946.727-.246.072-.486.158-.74.211-2.864.594-6.471-.803-9.806.048-2.927.747-6.241.917-9.457 1.848-2.954.855-5.542 3.411-8.683 4.41-2.966.943-5.402 3.692-8.489 4.754-3.087 1.062-7.111-.718-10.029.364-3.092 1.146-5.842 2.963-8.697 4.107-3.108 1.245-6.595 1.295-9.362 2.508-3.151 1.381-4.794 5.472-7.416 6.767-.859.424-1.787.662-2.73.81l.009.044c.137.651.294 1.301.467 1.95l.067.247c.184.666.384 1.331.612 1.993.199.578.415 1.147.641 1.708.168.414.348.819.531 1.224.056.126.109.255.167.38a35.5 35.5 0 0 0 1.554 2.961l.045.078c.684-.006 1.372-.049 2.062-.192 2.864-.594 6.127-1.129 9.462-1.98 2.927-.747 5.016-5.287 8.232-6.218 2.954-.855 6.456-.25 9.598-1.249 2.966-.943 5.715-2.779 8.802-3.841 3.087-1.062 7.103.635 10.022-.447 3.092-1.146 5.459-3.977 8.315-5.121 3.108-1.245 6.847-.702 9.614-1.915 1.956-.857 3.658-2.109 5.295-3.246 1.001-.695 1.978-1.347 2.973-1.838a68.48 68.48 0 0 0 2.035-1.054c-.042-.257-.082-.513-.127-.769z"
          fill="#8cc63f"/>
    <path d="M86.662 47.487a34.14 34.14 0 0 0-.027-.958c-.014-.35-.029-.701-.054-1.051a34.66 34.66 0 0 0-.128-1.359c-.017-.153-.028-.306-.047-.459-.021-.166-.047-.332-.07-.498l-.016-.106c-.019-.135-.045-.27-.066-.405-.66.353-1.332.707-2.035 1.054-.995.491-1.972 1.143-2.973 1.838-1.637 1.137-3.339 2.389-5.295 3.246-2.767 1.213-6.506.669-9.614 1.915-2.855 1.144-5.223 3.975-8.315 5.121-2.918 1.082-6.935-.616-10.022.447-3.087 1.063-5.836 2.898-8.802 3.841-3.141.999-6.644.394-9.598 1.249-3.216.931-5.305 5.47-8.232 6.218-3.334.851-6.597 1.386-9.462 1.98-.69.143-1.378.186-2.062.192.044.074.085.151.129.225a38.99 38.99 0 0 0 .996 1.567l.201.298c.295.428.598.849.911 1.262.037.049.073.099.111.148.423.553.865 1.089 1.319 1.616l.813.026c2.9.094 6.221-.465 9.63-.808 2.982-.3 6.35-.074 9.625-.709 2.996-.581 6.309-.973 9.479-1.834 2.98-.81 5.63-3.28 8.704-4.338 3.074-1.058 5.572-3.389 8.419-4.585 3.027-1.271 6.723-.879 9.442-2.264 2.971-1.515 4.522-5.195 7.056-6.793.841-.53 1.824-.836 2.849-1.052 2.508-.529 5.271-.507 6.853-1.827.07-.058.132-.124.201-.183.024-.337.033-.675.047-1.013.012-.292.028-.583.033-.876.009-.375.005-.75 0-1.125z"
          fill="#649623"/>
    <path d="M86.584 50.5c-.069.06-.131.125-.201.183-1.582 1.319-4.345 1.298-6.853 1.827-1.025.216-2.009.521-2.849 1.052-2.534 1.598-4.085 5.279-7.056 6.793-2.718 1.386-6.414.993-9.442 2.264-2.847 1.196-5.345 3.527-8.419 4.585-3.073 1.058-5.724 3.529-8.704 4.338-3.169.861-6.483 1.253-9.479 1.834-3.275.635-6.644.409-9.625.709-3.409.343-6.73.902-9.63.808l-.813-.026c.328.38.659.758 1.002 1.124l.001.001c.759.275 1.536.549 2.325.844 2.878 1.073 5.789 2.384 9.22 2.803 3.091.378 6.314.471 9.719.29 3.145-.168 6.523.289 9.831-.38 3.111-.629 6.065-2.307 9.233-3.398 3.169-1.091 6.102-2.444 8.942-3.863 2.943-1.471 5.205-3.702 7.708-5.484.064-.046.127-.095.192-.14 2.794-1.952 7.131-1.932 9.334-4.131 2.161-2.158 3.552-5.032 4.956-7.477.14-.701.255-1.407.354-2.115.02-.145.037-.29.055-.434a36.14 36.14 0 0 0 .179-1.738c.013-.169.027-.338.038-.507.016-.258.018-.517.029-.776-.015.339-.023.677-.047 1.014z"
          fill="#8cc63f"/>
    <path d="M82.711 31.818a35.07 35.07 0 0 0-.734-1.334c.024.041.045.085.069.126.228.399.452.799.665 1.208z" fill="#649623"/>
    <path d="M86.264 42.646l-.006.003c.021.136.043.271.062.407l.01.06c-.056-.4-.114-.8-.184-1.2.027.152.045.304.07.456.014.091.033.182.048.274z"
          fill="#649623"/>
    <path d="M84.007 34.584z" fill="#649623"/>
    <path d="M85.423 38.712c-.03-.11-.057-.22-.088-.33.026.091.046.183.071.274l.017.056z" fill="#649623"/>
    <path d="M80.598 28.277c.08.117.15.242.229.36.277.417.553.834.813 1.264a34.607 34.607 0 0 0-1.175-1.826c.046.066.085.136.13.202h.003z" fill="#649623"/>
    <path d="M86.678 48.086c.001-.328-.009-.656-.017-.984.003.129-.001.257.001.385.002.2.017.4.016.599z" fill="#649623"/>
    <path d="M85.94 40.867c-.049-.237-.095-.474-.149-.711.045.199.081.398.123.597.007.038.018.076.026.114z" fill="#649623"/>
    <path d="M83.113 32.611c.075.153.139.313.212.468.127.27.257.538.378.813a35.723 35.723 0 0 0-.637-1.373l.043.094.004-.002z" fill="#649623"/>
    <path d="M86.613 45.816c-.009-.143-.026-.285-.036-.428l.005.09c.007.113.024.226.031.338z" fill="#649623"/>
    <path d="M86.655 46.913c-.011-.351-.017-.702-.038-1.053.014.224.009.447.019.67.004.127.015.255.019.383z" fill="#649623"/>
    <path d="M86.548 45.06a35.251 35.251 0 0 0-.132-1.327c.016.129.022.258.036.387.035.313.07.626.096.94z" fill="#649623"/>
    <path d="M86.564 50.77z" fill="#649623"/>
    <path d="M80.461 28.069a35.8 35.8 0 0 0-1.155-1.57l.012.031a34.42 34.42 0 0 1 1.143 1.539z" fill="#649623"/>
    <path d="M86.602 50.263c.031-.486.05-.973.061-1.461-.005.229-.022.457-.032.685-.011.258-.013.518-.029.776z" fill="#649623"/>
    <path d="M86.664 48.611v.116l.006-.288c0 .058-.005.115-.006.172z" fill="#649623"/>
    <path d="M86.678 48.086c0 .118-.006.236-.008.354.002-.118.008-.236.008-.354z" fill="#8cc63f"/>
    <path d="M86.602 50.263c-.011.169-.025.338-.038.507.013-.169.027-.338.038-.507z" fill="#8cc63f"/>
    <path d="M83.92 34.367c-.068-.161-.147-.315-.217-.475l.041.092c.056.129.121.252.176.383z" fill="#8cc63f"/>
    <path d="M86.031 41.327c.011.059.026.119.037.178-.04-.213-.084-.425-.128-.638l.012.059.079.401z" fill="#8cc63f"/>
    <path d="M86.406 43.66l.01.073c-.025-.206-.058-.411-.087-.617l.007.046c.023.166.049.332.07.498z" fill="#8cc63f"/>
    <path d="M86.613 45.816l.004.043-.004-.043z" fill="#8cc63f"/>
    <path d="M80.461 28.069l.003.005-.003-.005z" fill="#8cc63f"/>
    <path d="M81.819 30.199c-.059-.1-.12-.199-.18-.299.036.059.068.12.103.178.025.042.053.08.077.121z" fill="#8cc63f"/>
    <path d="M85.559 39.237c-.045-.175-.088-.35-.136-.525.032.115.057.23.088.345l.048.18z" fill="#8cc63f"/>
    <path d="M86.385 52.508c-.018.145-.035.29-.055.434.02-.144.037-.289.055-.434z" fill="#8cc63f"/>
    <path d="M82.934 32.236c-.071-.141-.15-.278-.223-.418l.074.146c.047.092.102.179.149.272z" fill="#8cc63f"/>
    <path d="M85.491 38.983l.02.074c-.03-.115-.056-.23-.088-.345l-.017-.055c.03.108.056.217.085.326z" fill="#8cc63f"/>
    <path d="M85.915 40.762l.036.165c-.004-.02-.007-.04-.012-.059l-.027-.114c.002.002.002.005.003.008z" fill="#8cc63f"/>
    <path d="M86.336 43.162a.634.634 0 0 0-.007-.046l-.01-.06.017.106z" fill="#8cc63f"/>
    <path d="M86.453 44.12c-.014-.129-.021-.258-.036-.387l-.01-.073c.018.153.029.307.046.46z" fill="#8cc63f"/>
    <path d="M81.742 30.079c-.035-.059-.068-.12-.103-.178a35.3 35.3 0 0 0-.813-1.264c.315.473.624.951.916 1.442z" fill="#8cc63f"/>
    <path d="M82.785 31.964l-.074-.146a35.289 35.289 0 0 0 .074.146z" fill="#8cc63f"/>
    <path d="M83.334 33.1c.138.294.278.586.409.885a2.561 2.561 0 0 0-.041-.092c-.121-.274-.25-.543-.378-.813l.01.02z" fill="#8cc63f"/>
    <path d="M86.635 46.53c-.009-.224-.005-.447-.019-.67l-.004-.043c-.007-.113-.024-.225-.032-.338.026.35.041.7.055 1.051z" fill="#8cc63f"/>
    <path d="M86.664 48.611c.001-.057.006-.114.006-.171.002-.118.007-.236.008-.354 0-.199-.014-.399-.017-.599.006.375.01.75.003 1.124z" fill="#8cc63f"/>
    <path d="M86.664 48.728l-.002.074.002-.074z" fill="#649623"/>
    <path d="M86.145 41.916c-.024-.137-.052-.274-.078-.411l.013.079c.021.111.046.221.065.332z" fill="#649623"/>
    <path d="M86.655 46.913l.006.189-.006-.189z" fill="#649623"/>
    <path d="M86.548 45.06c.009.11.02.219.028.329-.008-.11-.019-.22-.028-.329z" fill="#649623"/>
    <path d="M85.335 38.382a13.135 13.135 0 0 0-.056-.186c.006.022.011.044.018.065l.038.121z" fill="#649623"/>
    <path d="M83.987 34.537c-.023-.056-.043-.115-.067-.17.021.049.037.102.058.151l.009.019z" fill="#649623"/>
    <path d="M81.977 30.485c-.054-.094-.103-.192-.158-.285.051.086.095.176.145.263l.013.022z" fill="#649623"/>
    <path d="M83.066 32.519c-.046-.093-.086-.19-.132-.283.042.083.077.171.118.255l.014.028z" fill="#649623"/>
    <path d="M85.79 40.156c-.03-.132-.065-.264-.097-.395l.022.099c.024.099.052.197.075.296z" fill="#649623"/>
    <path d="M82.046 30.611c-.024-.042-.045-.085-.069-.126l-.013-.023.082.149z" fill="#649623"/>
    <path d="M80.598 28.277h-.003c.08.118.153.242.232.36-.079-.119-.149-.243-.229-.36z" fill="#649623"/>
    <path d="M86.662 47.487c-.002-.129.002-.257-.001-.385l-.006-.189c-.004-.128-.015-.255-.02-.383.013.319.022.638.027.957z" fill="#649623"/>
    <path d="M86.581 45.478c-.002-.03-.002-.06-.005-.09-.008-.11-.019-.219-.028-.329a33.24 33.24 0 0 0 .033.419z" fill="#649623"/>
    <path d="M86.258 42.649l-.004.002c.021.135.047.27.066.405-.019-.136-.042-.272-.062-.407z" fill="#649623"/>
    <path d="M83.109 32.613c-.014-.031-.027-.064-.043-.094l-.014-.027c.02.039.037.081.057.121z" fill="#649623"/>
    <path d="M86.631 49.487c.01-.229.026-.456.032-.685l.002-.074v-.116c-.006.292-.022.583-.034.875z" fill="#649623"/>
    <path d="M85.91 40.741l.003.012c-.042-.199-.077-.398-.123-.597-.023-.099-.052-.197-.075-.296.07.293.133.587.195.881z" fill="#649623"/>
    <path d="M86.129 41.882c.029.163.06.326.086.489-.025-.152-.043-.304-.07-.456-.02-.111-.045-.221-.065-.332.019.1.031.2.049.299z" fill="#649623"/>
    <path d="M85.382 38.578l.024.078c-.025-.091-.045-.183-.071-.274l-.038-.121c.031.106.056.212.085.317z" fill="#649623"/>
    <path d="M81.964 30.462c-.05-.086-.094-.177-.145-.263-.024-.041-.052-.079-.077-.12.076.126.148.255.222.383z" fill="#649623"/>
    <path d="M83.973 34.507a.097.097 0 0 1 .005.011c-.021-.05-.037-.102-.058-.151-.055-.13-.12-.253-.177-.382.077.174.156.345.23.522z" fill="#649623"/>
    <path d="M86.336 43.162c.023.166.049.332.07.498-.021-.166-.047-.332-.07-.498z" fill="#649623"/>
    <path d="M83.052 32.491c-.041-.084-.077-.172-.118-.255-.047-.093-.101-.18-.149-.272.09.175.18.35.267.527z" fill="#649623"/>
    <path d="M86.04 41.378l.04.205-.013-.079c-.011-.059-.025-.119-.037-.178l.01.052z" fill="#649623"/>
    <path d="M85.91 40.741l.005.021-.002-.009-.003-.012z" fill="#649623"/>
    <path d="M86.04 41.378c.032.168.059.336.089.504-.018-.099-.03-.199-.049-.299l-.04-.205z" fill="#649623"/>
    <path d="M83.743 33.984c-.131-.299-.271-.591-.409-.885.219.465.438.93.639 1.407-.074-.176-.153-.347-.23-.522z" fill="#649623"/>
    <path d="M85.382 38.578l.109.405c-.029-.109-.055-.218-.085-.326-.007-.027-.016-.053-.024-.079z" fill="#649623"/>
    <path d="M85.693 39.761c-.042-.175-.089-.349-.134-.524.008.029.013.058.02.087.038.146.079.291.114.437z" fill="#8cc63f"/>
    <path d="M84.776 36.6z" fill="#8cc63f"/>
    <path d="M84.007 34.584l-.02-.047.003.008.017.039z" fill="#8cc63f"/>
    <path d="M83.325 33.079c-.073-.154-.137-.314-.212-.468l-.004.001c.063.129.12.262.182.392l.034.075z" fill="#8cc63f"/>
    <path d="M84.776 36.6a33.252 33.252 0 0 0-.769-2.015l-.017-.04c.28.673.545 1.356.786 2.055z" fill="#8cc63f"/>
    <path d="M86.264 42.646c-.014-.091-.034-.183-.048-.274.015.092.028.185.042.277l.006-.003z" fill="#8cc63f"/>
    <path d="M85.542 39.178l.038.146-.02-.087-.048-.18c.01.04.019.081.03.121z" fill="#8cc63f"/>
    <path d="M85.951 40.927l.057.288.023.112a56.565 56.565 0 0 0-.08-.4z" fill="#8cc63f"/>
    <path d="M85.915 40.762l.093.453-.057-.288-.036-.165z" fill="#8cc63f"/>
    <path d="M83.334 33.1l-.009-.021-.034-.074.043.095z" fill="#8cc63f"/>
    <path d="M85.491 38.983l.051.195-.031-.121-.02-.074z" fill="#8cc63f"/>
    <path d="M85.589 39.363c.042.166.087.331.126.497l-.022-.099c-.035-.146-.076-.291-.113-.437l.009.039z" fill="#8cc63f"/>
    <path d="M85.279 38.196a35.042 35.042 0 0 0 .017.066c-.005-.022-.01-.044-.017-.066z" fill="#8cc63f"/>
    <path d="M83.979 34.521l.01.024-.003-.008-.009-.019c.002.001.002.002.002.003z" fill="#8cc63f"/>
    <path d="M83.109 32.613c.062.129.12.262.182.392-.062-.13-.118-.263-.182-.392z" fill="#8cc63f"/>
    <path d="M83.979 34.521a35.427 35.427 0 0 1 .011.024l-.011-.024z" fill="#8cc63f"/>
    <path d="M86.215 42.372c-.026-.163-.057-.326-.086-.489.045.256.085.512.125.768l.004-.002-.043-.277z" fill="#8cc63f"/>
    <path d="M85.297 38.261a35.4 35.4 0 0 0-.521-1.662c.226.657.422 1.317.606 1.979-.029-.105-.054-.211-.085-.317z" fill="#8cc63f"/>
    <path d="M85.589 39.363c.117.459.224.918.322 1.378a38.493 38.493 0 0 0-.195-.881c-.041-.166-.085-.331-.127-.497z" fill="#8cc63f"/>
    <path d="M83.978 34.518l-.005-.011.006.014-.001-.003z" fill="#8cc63f"/>
    <path d="M86.008 41.215l.032.163-.009-.051-.023-.112z" fill="#8cc63f"/>
    <path d="M85.542 39.178l.047.185-.009-.039-.038-.146z" fill="#8cc63f"/>
    <path d="M5.017 51.825c0-.094-.003-.188-.002-.282l.007-.006c.013-.94.051-1.879.137-2.813.481-.642.954-1.298 1.378-1.987 1.608-2.616 1.977-6.536 4.422-8.978 2.203-2.199 4.707-4.677 7.501-6.629 2.582-1.803 5.661-3.43 8.68-4.939 2.839-1.419 6.329-1.843 9.498-2.934 3.169-1.091 6.199-2.805 9.31-3.434 3.308-.669 6.719-1.334 9.864-1.502 3.405-.182 6.611 2.559 9.702 2.937 2.938.359 6.033-.515 8.67-.103-10.428-8.852-25.874-11.98-40.643-6.897-17.75 6.109-28.96 22.168-28.516 38.69l-.001-.108c-.007-.339-.009-.677-.007-1.015z"
          fill="#649623"/>
    <path d="M74.184 21.157z" fill="#8cc63f"/>
    <path d="M5.031 53.133c.012.365.021.729.044 1.094-.016-.259-.018-.518-.029-.777-.003-.106-.012-.212-.015-.317z" fill="#8cc63f"/>
    <path d="M7.582 65.195c.065.159.138.312.205.47a2.827 2.827 0 0 0-.035-.081c-.054-.13-.116-.257-.17-.389z" fill="#8cc63f"/>
    <path d="M5.078 54.258c.005.083.015.165.021.248l-.001-.026c-.005-.074-.015-.148-.02-.222z" fill="#8cc63f"/>
    <path d="M77.776 24.674z" fill="#8cc63f"/>
    <path d="M6.229 61.159l-.012-.045.026.103-.013-.055-.001-.003z" fill="#8cc63f"/>
    <path d="M76.205 23.023z" fill="#8cc63f"/>
    <path d="M6.267 61.31c.023.085.042.171.066.256-.022-.079-.039-.158-.06-.237l-.006-.019z" fill="#8cc63f"/>
    <path d="M9.972 69.973l.017.029-.014-.025-.003-.004z" fill="#8cc63f"/>
    <path d="M11.088 71.726c.083.121.166.242.25.361-.056-.081-.11-.164-.165-.245-.028-.039-.058-.076-.085-.116z" fill="#8cc63f"/>
    <path d="M10.944 71.504c.038.057.074.116.113.173-.03-.043-.056-.089-.086-.133l-.027-.04z" fill="#8cc63f"/>
    <path d="M79.318 26.53l-.012-.031c-.041-.053-.085-.102-.126-.155.048.061.091.125.138.186z" fill="#8cc63f"/>
    <path d="M10.095 70.187c.084.139.172.275.258.412-.046-.073-.089-.147-.134-.22-.04-.065-.084-.127-.124-.192z" fill="#8cc63f"/>
    <g><path d="M71.685 66.666c-.065.045-.127.094-.192.14-2.504 1.782-4.766 4.012-7.708 5.484-2.839 1.419-5.772 2.772-8.942 3.863-3.169 1.091-6.122 2.769-9.233 3.398-3.308.668-6.686.212-9.831.38-3.405.182-6.628.089-9.719-.29-3.431-.42-6.343-1.73-9.22-2.803-.789-.294-1.566-.568-2.325-.843 2.999 3.198 6.57 5.835 10.531 7.827 9.642 4.85 21.575 5.886 33.097 1.92 14.833-5.105 25.085-17.162 27.8-30.628-1.393 2.433-2.78 5.28-4.925 7.422-2.201 2.198-6.538 2.178-9.333 4.13z" fill="#649623"/>
        <path d="M86.33 52.943c-.102.728-.24 1.45-.386 2.17l.031-.055c.141-.701.256-1.407.355-2.115z" fill="#649623"/></g>
    <path d="M12.083 73.105l-.057-.077c.121.161.238.326.362.485-.066-.085-.128-.174-.194-.26l-.111-.148z" fill="#8cc63f"/>
    <path d="M13.494 74.868l-.008-.01c.333.388.68.763 1.029 1.135a36.849 36.849 0 0 1-1.002-1.124l-.019-.001z" fill="#8cc63f"/>
    <path d="M5.59 58.343l.018.09-.002-.011-.016-.079z" fill="#8cc63f"/>
    <path d="M8.34 66.924c.078.167.165.328.246.493l-.067-.138c-.058-.119-.122-.235-.179-.355z" fill="#8cc63f"/>
    <path d="M5.264 56.236c.036.294.08.588.124.882-.017-.114-.031-.227-.046-.341-.025-.18-.056-.36-.078-.541z" fill="#8cc63f"/>
    <path d="M5.776 59.29c.031.147.056.294.09.44-.027-.12-.046-.24-.072-.36l-.018-.08z" fill="#8cc63f"/>
    <path d="M9.179 68.587c.083.155.173.306.258.46l-.101-.185c-.051-.093-.107-.182-.157-.275z" fill="#8cc63f"/>
    <path d="M5.446 57.535c.019.12.035.239.055.359-.014-.083-.022-.165-.036-.248-.005-.037-.013-.074-.019-.111z" fill="#8cc63f"/>
    <path d="M5.104 54.559c.037.501.077 1.001.136 1.502-.039-.339-.062-.678-.091-1.018-.014-.161-.034-.322-.045-.484z" fill="#8cc63f"/>
    <path fill="#8cc63f" d="M14.516 75.994l-.001-.001z"/>
    <path d="M5.59 58.343c-.028-.15-.062-.299-.088-.448.025.149.06.298.088.448z" fill="#8cc63f"/>
    <path d="M78.78 25.854c.133.164.27.324.4.491-.131-.167-.267-.328-.4-.491z" fill="#8cc63f"/>
    <path d="M11.088 71.726l-.032-.049.032.049z" fill="#8cc63f"/>
    <path d="M5.264 56.236c-.007-.058-.018-.117-.025-.175.007.059.018.117.025.175z" fill="#8cc63f"/>
    <path d="M10.095 70.187c-.037-.061-.07-.124-.107-.185.037.061.07.124.107.185z" fill="#8cc63f"/>
    <path d="M77.307 24.158z" fill="#8cc63f"/>
    <path d="M75.792 22.613c.14.134.275.273.413.41-.138-.137-.273-.276-.413-.41z" fill="#8cc63f"/>
    <path d="M86.661 47.102l-.006-.189c-.011-.351-.017-.702-.038-1.053l-.004-.043c-.009-.143-.026-.285-.037-.428-.008-.11-.019-.219-.028-.329a35.251 35.251 0 0 0-.132-1.327c-.011-.092-.026-.184-.039-.276l-.041-.294a.634.634 0 0 0-.007-.046c-.022-.156-.049-.312-.072-.467l.006-.003c-.014-.088-.032-.177-.047-.265-.024-.155-.044-.31-.071-.464-.024-.137-.052-.274-.078-.411-.04-.213-.083-.425-.128-.638-.049-.237-.095-.474-.149-.711-.03-.132-.065-.264-.097-.395-.042-.175-.089-.349-.134-.524-.045-.175-.088-.35-.136-.525-.03-.11-.057-.22-.088-.33l-.055-.186a33.252 33.252 0 0 0-1.273-3.611l-.02-.047c-.023-.056-.043-.115-.067-.17-.068-.161-.147-.315-.218-.475-.131-.298-.271-.589-.409-.882-.06-.133-.117-.268-.181-.398l-.003.001c-.015-.031-.028-.063-.044-.094l.043.094-.043-.094c-.046-.093-.086-.19-.132-.283-.071-.141-.15-.278-.223-.418a35.07 35.07 0 0 0-.734-1.334c-.054-.094-.103-.192-.158-.285l-.179-.299a35.3 35.3 0 0 0-.813-1.264c-.078-.118-.149-.243-.229-.36h-.003c-.045-.066-.084-.136-.13-.202l-.003-.005a35.8 35.8 0 0 0-1.155-1.57c-.041-.053-.085-.102-.126-.155.048.06.091.125.138.186l.052.138c.082.22.163.44.241.661.05.142.102.284.15.426.049.146.091.294.137.441.085.27.172.541.253.812.064.215.132.43.192.646.129.464.243.93.354 1.397.027.116.057.231.083.347.034.151.075.3.107.451l.011.046c.079.372.141.746.208 1.12l.036.201c.007.041.013.083.021.124.054.308.109.616.153.925.018.126.03.253.047.38.014.103.025.206.038.308l.01.079c.065.523.121 1.047.163 1.572.014.183.026.365.038.548.042.629.068 1.257.078 1.887.003.158.007.315.008.473a39.116 39.116 0 0 1-.453 6.031c-.357 2.353-.946 4.681-1.717 6.967-1.718 5.094-4.421 9.956-8.036 14.297-4.087 4.907-9.308 9.154-15.525 12.312-10.057 5.109-20.981 6.515-30.923 4.703 9.642 4.85 21.575 5.886 33.097 1.92 14.833-5.105 25.085-17.162 27.8-30.628l.031-.055c.14-.701.255-1.407.354-2.115.02-.145.037-.29.055-.434a36.14 36.14 0 0 0 .179-1.738c.013-.169.027-.338.038-.507.031-.486.05-.973.061-1.461l.002-.074.006-.288c.002-.118.007-.236.008-.354.004-.333-.006-.661-.014-.989z"
          opacity=".2"/>
    <path d="M5.078 54.258l-.003-.031.003.031z" fill="#8cc63f"/>
    <path fill="#8cc63f" d="M74.183 21.156l.001.001z"/>
    <path d="M8.266 66.759c.025.055.048.111.074.166-.022-.046-.04-.094-.061-.14l-.013-.026z" fill="#8cc63f"/>
    <path d="M6.333 61.566c.017.058.037.116.054.175l-.005-.018c-.015-.052-.034-.105-.049-.157z" fill="#8cc63f"/>
    <path d="M7.545 65.098l.037.097-.029-.078a.108.108 0 0 1-.008-.019z" fill="#8cc63f"/>
    <path d="M5.865 59.73c.026.116.06.232.088.348l-.005-.022c-.025-.108-.058-.216-.083-.326z" fill="#8cc63f"/>
    <path d="M9.075 68.383c.036.067.068.137.104.204-.033-.061-.062-.125-.094-.186l-.01-.018z" fill="#8cc63f"/>
    <path d="M5.466 57.646c.013.083.021.166.036.248.026.15.061.299.088.448l.016.079c-.048-.257-.098-.516-.14-.775z" fill="#8cc63f"/>
    <path fill="#8cc63f" d="M6.23 61.161v-.001l-.001-.001z"/>
    <path d="M9.085 68.401c.032.061.061.125.094.186.05.093.107.183.158.275-.085-.153-.17-.306-.252-.461z" fill="#8cc63f"/>
    <path d="M9.974 69.977l.014.025c.036.061.07.124.107.185.04.065.084.127.124.192a38.99 38.99 0 0 1-.245-.402z" fill="#8cc63f"/>
    <path d="M6.297 61.407l-.024-.078c.022.079.038.158.06.237.015.053.034.105.049.157-.03-.105-.056-.211-.085-.316z" fill="#8cc63f"/>
    <path d="M5.024 52.84c-.008-.339-.01-.677-.008-1.015-.001.338.001.676.008 1.015z" fill="#8cc63f"/>
    <path d="M7.553 65.117l.029.078c.054.132.115.258.17.389-.065-.156-.135-.309-.199-.467z" fill="#8cc63f"/>
    <path d="M5.794 59.371c.026.12.044.24.072.36.025.109.057.218.083.327a33.898 33.898 0 0 1-.155-.687z" fill="#8cc63f"/>
    <path d="M8.279 66.784l.061.14c.057.12.121.235.179.355-.08-.165-.163-.328-.24-.495z" fill="#8cc63f"/>
    <path d="M5.047 53.449c.011.259.012.518.029.777l.003.031c.005.074.015.148.02.222-.025-.343-.038-.686-.052-1.03z" fill="#8cc63f"/>
    <path d="M12.083 73.105c.037.049.073.099.111.148l-.111-.148z" fill="#8cc63f"/>
    <path d="M5.148 55.044c.029.339.052.679.091 1.018.007.058.018.117.025.175.022.18.053.36.078.541a35.353 35.353 0 0 1-.194-1.734z" fill="#8cc63f"/>
    <path d="M10.971 71.544c.029.044.056.089.086.133l.032.049c.027.04.057.077.084.117-.069-.099-.135-.199-.202-.299z" fill="#8cc63f"/>
    <path d="M6.909 63.4z" fill="#8cc63f"/>
    <path d="M5.446 57.535c-.022-.139-.038-.278-.058-.417.02.139.036.278.058.417z" fill="#8cc63f"/>
    <path d="M5.776 59.29z" fill="#8cc63f"/>
    <path d="M6.909 63.4z" fill="#8cc63f"/>
    <path d="M5.031 53.133l-.006-.185.006.185z" fill="#8cc63f"/>
    <path d="M8.122 66.428c-.046-.102-.089-.205-.135-.307-.067-.152-.135-.302-.2-.455.156.367.312.733.479 1.093l-.029-.066c-.04-.087-.075-.177-.115-.265z"
          fill="#8cc63f"/>
    <path d="M5.104 54.559l-.005-.054a.83.83 0 0 0 .005.054z" fill="#8cc63f"/>
    <path d="M10.944 71.504z" fill="#8cc63f"/>
    <path d="M12.026 73.028z" fill="#8cc63f"/>
    <path d="M8.998 68.231l-.031-.061c-.13-.249-.258-.5-.382-.753.159.325.32.648.489.966-.025-.047-.048-.096-.072-.144l-.004-.008z" fill="#8cc63f"/>
    <path d="M5.953 60.079c.082.346.171.69.264 1.035-.05-.186-.095-.372-.142-.558-.04-.159-.084-.318-.122-.477z" fill="#8cc63f"/>
    <path d="M9.972 69.973z" fill="#8cc63f"/>
    <path d="M13.486 74.858z" fill="#8cc63f"/>
    <path d="M11.172 71.842c.056.081.109.164.165.245.223.319.455.63.688.941l.057.077a38.168 38.168 0 0 1-.91-1.263z" fill="#8cc63f"/>
    <path d="M7.753 65.584l.035.081c.065.153.133.304.2.455-.079-.178-.16-.355-.235-.536z" fill="#8cc63f"/>
    <path d="M5.342 56.777l.046.341c.021.139.036.278.058.417l.02.111c-.047-.289-.085-.579-.124-.869z" fill="#8cc63f"/>
    <path d="M13.513 74.869a35.43 35.43 0 0 1-1.319-1.616c.066.086.128.175.194.26.356.457.721.907 1.098 1.345l.008.01.019.001z" fill="#8cc63f"/>
    <path d="M10.219 70.379c.045.073.088.147.134.22.192.306.39.606.59.905l.027.04a36.749 36.749 0 0 1-.751-1.165z" fill="#8cc63f"/>
    <path d="M9.845 69.752h-.001l-.043-.078c-.157-.269-.314-.538-.464-.811l.101.185a33.755 33.755 0 0 0 .537.93c-.045-.075-.086-.152-.13-.226z" fill="#8cc63f"/>
    <path d="M8.519 67.279l.067.138a33.19 33.19 0 0 0-.067-.138z" fill="#8cc63f"/>
    <path d="M5.762 59.211l-.01-.043h.001a37.697 37.697 0 0 1-.147-.745l.002.011c.053.286.108.572.168.858l.018.08c-.012-.055-.021-.108-.032-.161z"
          fill="#8cc63f"/>
    <path d="M6.075 60.556c.047.186.092.372.142.558l.012.045c-.054-.201-.103-.402-.154-.603z" fill="#8cc63f"/>
    <path d="M5.024 52.84l.001.108.006.185c.003.105.011.211.016.317-.008-.204-.018-.407-.023-.61z" fill="#8cc63f"/>
    <path d="M5.098 54.48l.001.026a.985.985 0 0 0 .005.054c.012.161.031.323.045.484-.017-.188-.038-.376-.051-.564z" fill="#8cc63f"/>
    <path d="M5.014 51.543c-.001.094.003.188.002.282 0-.096.003-.192.004-.288a.017.017 0 0 1-.006.006z" fill="#8cc63f"/>
    <path d="M7.987 66.121c.045.102.089.206.135.307l-.042-.096-.093-.211z" fill="#8cc63f"/>
    <path d="M8.247 66.712l-.01-.019.029.066a.315.315 0 0 0 .013.026l-.032-.073z" fill="#8cc63f"/>
    <path d="M7.55 65.109l-.007-.017a.014.014 0 0 1 .002.006.154.154 0 0 1 .008.019l-.003-.008z" fill="#8cc63f"/>
    <path d="M8.968 68.17l.031.061-.008-.016c-.009-.015-.016-.03-.023-.045z" fill="#8cc63f"/>
    <path d="M9.005 68.244l-.003-.005c.025.047.047.096.072.144l.01.018-.079-.157z" fill="#8cc63f"/>
    <path d="M5.949 60.057l.005.022c.038.159.082.318.122.477-.043-.166-.088-.332-.127-.499z" fill="#8cc63f"/>
    <path d="M6.387 61.741z" fill="#8cc63f"/>
    <path d="M8.247 66.712l.032.072c.077.167.16.33.24.495.146.3.295.597.449.891l.023.044a34.929 34.929 0 0 1-.744-1.502z" fill="#8cc63f"/>
    <path d="M5.949 60.057c.039.167.085.333.127.499.051.201.1.402.154.603v.001a36.313 36.313 0 0 1-.467-1.95c.011.053.02.107.032.16.048.23.1.459.154.687z"
          fill="#8cc63f"/>
    <path d="M6.382 61.723a33.519 33.519 0 0 1-.086-.316c.03.105.056.211.086.316z" fill="#8cc63f"/>
    <path d="M7.55 65.109l.003.009c.064.158.134.311.2.467.076.18.156.358.235.536l.093.212a32.5 32.5 0 0 1-.531-1.224z" fill="#8cc63f"/>
    <path d="M9.085 68.401c.082.155.167.308.252.461a36.049 36.049 0 0 1-.332-.619c.027.053.052.106.08.158z" fill="#8cc63f"/>
    <path d="M6.267 61.31l-.024-.093.024.093z" fill="#8cc63f"/>
    <path d="M6.23 61.161l.013.055.024.093.006.019c-.016-.055-.028-.111-.043-.167z" fill="#8cc63f"/>
    <path d="M6.273 61.329l.024.078-.067-.247v.001c.015.056.027.112.043.168z" fill="#8cc63f"/>
    <path d="M9.002 68.239l-.004-.008.004.008z" fill="#8cc63f"/>
    <path d="M6.909 63.4z" fill="#8cc63f"/>
    <path d="M8.238 66.693c-.04-.087-.076-.177-.116-.265.04.088.075.178.116.265z" fill="#8cc63f"/>
    <path d="M5.762 59.211l-.009-.044h-.002l.011.044z" fill="#8cc63f"/>
    <path d="M9.844 69.752h.001l-.045-.078c.016.025.029.052.044.078z" fill="#8cc63f"/>
    <path d="M8.122 66.428c.04.088.076.178.116.265l.01.019c-.058-.125-.11-.254-.167-.38.014.032.026.065.041.096z" fill="#8cc63f"/>
    <path d="M7.55 65.109z" fill="#8cc63f"/>
    <path d="M8.998 68.231l.004.008.003.005a.773.773 0 0 0-.015-.029l.008.016z" fill="#8cc63f"/>
    <path d="M25.198 27.475c-4.858 1.751-8.834 9.408-8.53 13.06" fill="#fff" stroke="#fff" stroke-width="5.798" stroke-linecap="round" stroke-miterlimit="10"/>
    <circle transform="rotate(-16.3 16.83 50.663)" cx="16.827" cy="50.657" fill="#fff" r="3.339"/>
</svg>